<svg xmlns="http://www.w3.org/2000/svg" viewBox="0 0 200 66">
  <g fill="#1f221c">
  <path d="M93.33 14c0 1.434-.192 3.004-.575 4.713-.38 1.71-.75 2.564-1.103 2.564-.275 0-.415-.14-.415-.414 0-.083.028-.207.084-.372.74-1.92 1.1-4.01 1.1-6.24 0-3.47-1.03-6.26-3.1-8.37-2.07-2.11-4.8-3.16-8.19-3.16-4.58 0-9.3 1.51-14.15 4.51 4.14 3.31 6.21 7.07 6.21 11.26 0 3.54-1.42 6.61-4.26 9.23s-6.16 3.93-9.96 3.93c-1.49 0-3.09-.3-4.8-.89-1.71-.59-2.56-1.16-2.56-1.69.057-.16.166-.25.33-.25.138 0 .36.09.664.25 1.706.98 3.43 1.47 5.164 1.47 3.144 0 5.837-1.35 8.08-4.05 2.25-2.7 3.37-5.93 3.37-9.68 0-3.23-1.16-6.11-3.474-8.65-5.99 4.47-11.67 12.334-17.05 23.59-3.255 6.818-6.236 11.728-8.94 14.735-2.7 3.006-6.497 5.724-11.38 8.15-5.767 2.816-10.91 4.22-15.438 4.22-3.7 0-6.776-.845-9.23-2.542-2.474-1.714-3.7-3.83-3.7-6.37 0-1.407.42-2.62 1.26-3.642.843-1.02 1.843-1.53 3-1.53 1.685 0 2.527.94 2.527 2.816 0 .936-.286 1.736-.85 2.4-.567.66-1.264.99-2.09.99-1.436 0-2.126-.74-2.07-2.23.025-.6-.03-.91-.17-.91-.44 0-.66.73-.66 2.19 0 2.29 1.127 4.2 3.375 5.71 2.25 1.52 5.084 2.28 8.506 2.28 6.04 0 11.52-2.23 16.43-6.7 2.15-1.96 3.988-3.96 5.506-6 1.655-2.204 5.27-7.557 10.843-16.056 2.78-4.19 6.06-8.4 9.85-12.62 3.77-4.22 6.99-7.245 9.64-9.066-4.31-3.67-10.63-5.505-18.96-5.505-11.65 0-21.77 4.205-30.38 12.62-7.06 6.9-10.6 13.39-10.6 19.49 0 3.09.99 5.544 2.98 7.365 1.984 1.82 4.675 2.73 8.07 2.73 5.545 0 11.28-2.66 17.195-7.99 5.92-5.32 8.88-10.5 8.88-15.52 0-4-2.06-6-6.17-6s-8.516 2.3-13.22 6.89c-4.704 4.59-7.056 8.893-7.056 12.92 0 .99.33 1.845 1 2.56.662.718 1.44 1.077 2.33 1.077.47 0 .703.126.703.37 0 .22-.262.33-.79.33-1.33 0-2.45-.6-3.363-1.8-.912-1.2-1.37-2.67-1.37-4.403 0-4.3 2.36-8.49 7.08-12.57 4.72-4.08 9.56-6.12 14.524-6.12 4.746 0 7.12 2.194 7.12 6.58 0 5.355-3.02 10.76-9.065 16.225-6.04 5.464-12 8.195-17.88 8.195-3.83 0-6.9-1.15-9.203-3.454-2.303-2.305-3.454-5.39-3.454-9.25 0-7.81 4.41-14.935 13.224-21.378 8.812-6.44 18.56-9.665 29.24-9.665 8.11 0 14.926 1.805 20.444 5.42 5.05-3.146 9.93-4.72 14.65-4.72 3.694 0 6.67 1.1 8.92 3.31s3.38 5.11 3.38 8.72"/>
  <path d="M74.844 45.294h2.746c.793 0 .916-.367.916-.976v-25.45c0-8.057-.367-8.3-2.32-8.3H73.44V8.55h29.906c-.672 5.8-.733 6.227-1.343 6.227-.792 0-.915-.488-.975-1.342-.062-1.038-3.297-2.503-10.255-2.503H86.38c-.612 0-.795.183-.795.794V25.09h5.677c6.47 0 6.714-.73 6.714-2.5v-2.137h1.83v10.743h-1.83v-2.198c0-1.037-.245-1.708-6.714-1.708h-5.677v4.454c0 13 .245 13.183 2.32 13.183h2.135c3.297 0 11.597 0 13.49-3.356.243-.42.365-.79.914-.79.428 0 .672.31.672.74 0 .55-.306 1.47-1.587 5.8H74.84V45.3z"/>
  <path d="M106.286 45.294h2.746c.793 0 .916-.367.916-.976v-25.45c0-8.057-.367-8.3-2.32-8.3h-2.745V8.55h29.906c-.68 5.8-.74 6.227-1.35 6.227-.8 0-.92-.488-.98-1.342-.07-1.038-3.3-2.503-10.26-2.503h-4.4c-.61 0-.8.183-.8.794V25.09h5.676c6.47 0 6.712-.73 6.712-2.5v-2.137h1.83v10.743h-1.83v-2.198c0-1.037-.247-1.708-6.717-1.708H117v4.454c0 13 .245 13.183 2.32 13.183h2.135c3.294 0 11.6 0 13.49-3.356.24-.42.362-.79.912-.79.426 0 .67.31.67.74 0 .55-.306 1.47-1.59 5.8h-28.68V45.3z"/>
  <path d="M148.47 27.656h2.196c4.883 0 9.278-2.137 9.278-7.63 0-7.202-6.104-9.093-7.995-9.093h-2.69c-.61 0-.79.183-.79.793v15.93zm-10.742 19.652v-2.014h2.746c.793 0 .916-.367.916-.976v-25.45c0-8.058-.366-8.302-2.32-8.302h-2.746V8.55h17.883c8.666 0 12.816 5.496 12.816 10.5 0 5.31-3.66 8.668-8.727 9.398 5.493 8.362 7.568 11.72 10.132 14.587 1.648 1.77 2.075 2.26 4.455 2.26v2.013h-6.957c-1.343 0-2.442 0-3.053-.488-1.77-1.466-6.285-8.667-10.62-17.15h-3.783v7.324c0 8.056.366 8.3 2.32 8.3h2.745v2.014h-15.807z"/>
  <path d="M186.267 36.993c0 8.057.366 8.3 2.32 8.3h2.746v2.015h-15.808v-2.014h2.746c.8 0 .92-.366.92-.976v-13.55l-8.06-14.588c-3.11-5.613-3.66-5.613-4.63-5.613h-2.2V8.55h15.63v2.017h-3.23c-.24 0-.43.06-.43.365 0 .244.49 1.038.55 1.22l8.49 15.503c6.715-12.207 7.875-15.624 7.875-16.296 0-.74-.49-.8-1.343-.8h-3.17V8.55H200v2.017h-1.526c-1.343 0-1.526.244-2.38 1.77L186.266 30.4v6.59z"/>
  <path d="M50.15 59.177c.29.136.772.213 1.178.213 1.47 0 2.55-.928 2.55-2.435 0-1.064-.656-2.842-2.956-2.842h-.52c-.194 0-.252.06-.252.252v4.812zm0 3.19c0 2.55.115 2.628.734 2.628h.87v.637h-5.006v-.637h.87c.25 0 .29-.116.29-.31v-8.06c0-2.55-.117-2.627-.735-2.627h-.87v-.638h5.566c3.49 0 4.25 2.01 4.25 3.344 0 1.99-1.99 3.38-4.27 3.38-.56 0-1.14-.076-1.7-.25v2.532z"/>
  <path d="M60.41 62.367c0 2.55.117 2.628.736 2.628h.87v.637H57.01v-.637h.87c.25 0 .29-.116.29-.31v-8.06c0-2.55-.117-2.627-.736-2.627h-.87v-.638h5.007v.638h-.87c-.25 0-.29.116-.29.31v8.06z"/>
  <path d="M68.063 55.834c-.714 1.526-1.313 3.074-1.912 4.6h3.5l-1.58-4.6zm-2.222 5.354c-.4 1.063-1.08 2.802-1.08 3.38 0 .368.21.426.54.426h1.11v.638h-3.93v-.638h.62c.29 0 .41-.095.51-.347.81-2.126 2.82-6.706 4.8-11.346.33-.07 1.257-.3 1.548-.3.13 0 .19.14.19.25 0 .23-.39.27-.39.66 0 .68 2.163 6.36 3.226 9.28.58 1.57.735 1.82 1.39 1.82h.465v.64h-4.87V65h.87c.37 0 .427-.077.29-.464l-1.16-3.342h-4.11z"/>
  <path d="M86.153 62.116v-4.1c0-1.06 0-2.453-.136-3.38-.095-.6-.23-.638-.753-.638h-.773v-.638h3.62v.638h-.54c-.5 0-.6 0-.6.25v11.346c0 .136-.06.232-.19.232-.15 0-.27-.155-.58-.502l-8.55-9.704v5.354c0 1.063 0 2.455.14 3.383.1.6.23.637.76.637h.78v.638H75.7v-.638h.542c.5 0 .597 0 .597-.25V55.95c0-1.083-.43-1.952-1.18-1.952h-.56v-.638h3.34l7.71 8.756z"/>
  <path d="M99.797 60.22c0-4.986-2.764-6.533-4.543-6.533-.598 0-3.807.137-3.807 5.085 0 4.986 2.764 6.532 4.542 6.532.6 0 3.8-.136 3.8-5.083m-10.59-.4c0-3.84 2.64-6.82 6.61-6.82 3.77 0 6.22 2.44 6.22 6.19 0 3.85-2.65 6.83-6.61 6.83-3.77 0-6.22-2.43-6.22-6.18"/>
  <path d="M112.84 55.834c-.715 1.526-1.313 3.074-1.912 4.6h3.497l-1.586-4.6zm-2.222 5.354c-.407 1.063-1.083 2.802-1.083 3.38 0 .368.213.426.54.426h1.103v.638h-3.923v-.638h.618c.29 0 .406-.095.502-.347.812-2.126 2.823-6.706 4.793-11.346.33-.07 1.257-.3 1.547-.3.135 0 .193.14.193.25 0 .23-.387.27-.387.66 0 .68 2.17 6.36 3.23 9.28.58 1.57.74 1.82 1.39 1.82h.47v.64h-4.87V65h.87c.37 0 .43-.077.29-.464l-1.16-3.342h-4.11z"/>
  <path d="M130.987 55.408c-.175 0-.193-.096-.29-.482-.135-.562-1.546-1.14-2.725-1.14-3.228 0-5.18 2.627-5.18 5.817 0 2.88 1.682 5.604 4.775 5.604 1.08 0 3.38-.598 3.613-1.912.04-.175.058-.348.29-.348.174 0 .252.115.252.212 0 .15-.06.56-.156 1.85-1.352.65-3.092.98-4.58.98-3.846 0-6.55-1.99-6.55-6.03 0-4.28 3.632-6.98 7.69-6.98 1.122 0 2.243.27 3.286.67-.135 1.72-.174 1.74-.425 1.74"/>
  <path d="M138.37 55.834c-.717 1.526-1.315 3.074-1.914 4.6h3.498l-1.585-4.6zm-2.223 5.354c-.406 1.063-1.082 2.802-1.082 3.38 0 .368.212.426.54.426h1.103v.638h-3.924v-.638h.618c.29 0 .406-.095.503-.347.81-2.126 2.82-6.706 4.793-11.346.33-.07 1.256-.3 1.546-.3.136 0 .193.14.193.25 0 .23-.386.27-.386.66 0 .68 2.17 6.36 3.23 9.28.58 1.57.74 1.82 1.39 1.82h.47v.64h-4.87V65h.87c.37 0 .43-.077.29-.464l-1.16-3.342h-4.11z"/>
  <path d="M150.448 54.114c-.908 0-1.005 0-1.005.27v6.32c0 4.116.078 4.175.734 4.175 3.13.03 5.41-1.73 5.41-4.86 0-3.89-2.395-5.92-5.14-5.92m-4.406 10.88h.87c.26 0 .29-.12.29-.31v-8.06c0-2.55-.11-2.63-.73-2.63h-.87v-.64h5.94c4.39 0 6.48 2.84 6.48 5.85 0 2.57-1.47 6.415-6.67 6.415h-5.29v-.637z"/>
  <path d="M159.51 64.995h.87c.252 0 .29-.116.29-.31v-8.06c0-2.55-.116-2.627-.734-2.627h-.87v-.638h9.47c-.213 1.836-.232 1.972-.424 1.972-.252 0-.29-.155-.31-.426-.02-.328-1.043-.793-3.247-.793h-1.392c-.193 0-.25.06-.25.252v4.232h1.796c2.05 0 2.12-.232 2.12-.792v-.676h.58v3.4h-.58v-.7c0-.33-.08-.54-2.13-.54h-1.8v1.41c0 4.11.07 4.17.73 4.17h.67c1.04 0 3.67 0 4.27-1.07.08-.14.112-.25.29-.25.132 0 .21.09.21.23 0 .17-.098.46-.503 1.83h-9.08v-.64z"/>
  <path d="M177.658 62.135l3.767-8.775h3.286v.638h-.87c-.24 0-.28.116-.28.31v8.06c0 2.55.12 2.626.74 2.626h.87v.638h-5v-.638h.87c.258 0 .29-.116.29-.308v-9.16h-.032l-4.175 9.662c-.04.097-.094.328-.23.328-.135 0-.194-.23-.232-.328l-4.23-9.316h-.036v5.102c0 1.063 0 2.455.135 3.383.1.6.234.637.756.637h.78v.638h-3.618v-.638h.54c.503 0 .6 0 .6-.25v-8.156c0-1.682-.097-2.59-1.18-2.59h-.52v-.638h3.69l4.12 8.775z"/>
  <path d="M192.21 62.367c0 2.55.115 2.628.733 2.628h.87v.637h-5.006v-.637h.87c.252 0 .29-.116.29-.31v-4.29l-2.55-4.62C186.43 54 186.257 54 185.947 54h-.698v-.638h4.95V54h-1.03c-.08 0-.14.018-.14.116 0 .077.15.328.17.386l2.68 4.91c2.12-3.867 2.49-4.95 2.49-5.16 0-.234-.156-.252-.426-.252h-1.003v-.638h3.595V54h-.48c-.427 0-.485.077-.756.56l-3.11 5.72v2.09z"/>
  </g>
</svg>
