<?xml version="1.0" standalone="no"?>
<svg version="1.0" xmlns="http://www.w3.org/2000/svg"
 width="384.000000pt" height="384.000000pt" viewBox="0 0 384.000000 384.000000"
 preserveAspectRatio="xMidYMid meet">
<g transform="translate(0.000000,384.000000) scale(0.100000,-0.100000)"
fill="#FF5629" stroke="none">
<path d="M1710 3829 c-488 -55 -945 -300 -1258 -674 -744 -888 -545 -2214 428
-2848 869 -566 2041 -327 2628 536 154 226 279 539 307 770 l7 57 -745 0 -745
0 -21 -32 c-74 -120 -248 -209 -403 -207 -222 2 -421 168 -467 387 -70 336
235 641 571 571 114 -24 246 -110 298 -194 l22 -35 745 0 746 0 -7 62 c-10 86
-59 270 -99 375 -265 685 -872 1153 -1599 1232 -111 13 -298 12 -408 0z"/>
</g>
</svg>
